<svg id="visual" viewBox="0 0 960 540" width="960" height="540" xmlns="http://www.w3.org/2000/svg" xmlns:xlink="http://www.w3.org/1999/xlink" version="1.1"><path d="M370 0L406 0L406 45L446 45L446 90L409 90L409 135L449 135L449 180L383 180L383 225L478 225L478 270L336 270L336 315L459 315L459 360L346 360L346 405L468 405L468 450L405 450L405 495L393 495L393 540L0 540L0 495L0 495L0 450L0 450L0 405L0 405L0 360L0 360L0 315L0 315L0 270L0 270L0 225L0 225L0 180L0 180L0 135L0 135L0 90L0 90L0 45L0 45L0 0L0 0Z" fill="#5b6986"></path><path d="M387 0L396 0L396 45L258 45L258 90L364 90L364 135L319 135L319 180L272 180L272 225L300 225L300 270L325 270L325 315L333 315L333 360L336 360L336 405L289 405L289 450L280 450L280 495L324 495L324 540L0 540L0 495L0 495L0 450L0 450L0 405L0 405L0 360L0 360L0 315L0 315L0 270L0 270L0 225L0 225L0 180L0 180L0 135L0 135L0 90L0 90L0 45L0 45L0 0L0 0Z" fill="#4b5976"></path><path d="M275 0L270 0L270 45L272 45L272 90L262 90L262 135L193 135L193 180L186 180L186 225L293 225L293 270L285 270L285 315L249 315L249 360L212 360L212 405L191 405L191 450L257 450L257 495L226 495L226 540L0 540L0 495L0 495L0 450L0 450L0 405L0 405L0 360L0 360L0 315L0 315L0 270L0 270L0 225L0 225L0 180L0 180L0 135L0 135L0 90L0 90L0 45L0 45L0 0L0 0Z" fill="#3b4a66"></path><path d="M198 0L179 0L179 45L226 45L226 90L120 90L120 135L214 135L214 180L189 180L189 225L120 225L120 270L163 270L163 315L225 315L225 360L231 360L231 405L191 405L191 450L137 450L137 495L143 495L143 540L0 540L0 495L0 495L0 450L0 450L0 405L0 405L0 360L0 360L0 315L0 315L0 270L0 270L0 225L0 225L0 180L0 180L0 135L0 135L0 90L0 90L0 45L0 45L0 0L0 0Z" fill="#2b3c57"></path><path d="M95 0L106 0L106 45L76 45L76 90L127 90L127 135L112 135L112 180L87 180L87 225L105 225L105 270L93 270L93 315L140 315L140 360L92 360L92 405L87 405L87 450L50 450L50 495L116 495L116 540L0 540L0 495L0 495L0 450L0 450L0 405L0 405L0 360L0 360L0 315L0 315L0 270L0 270L0 225L0 225L0 180L0 180L0 135L0 135L0 90L0 90L0 45L0 45L0 0L0 0Z" fill="#1b2e48"></path></svg>