<svg id="visual" viewBox="0 0 960 540" width="960" height="540" xmlns="http://www.w3.org/2000/svg" xmlns:xlink="http://www.w3.org/1999/xlink" version="1.1"><path d="M0 295L137 295L137 231L274 231L274 286L411 286L411 269L549 269L549 257L686 257L686 334L823 334L823 306L960 306L960 290L960 541L960 541L823 541L823 541L686 541L686 541L549 541L549 541L411 541L411 541L274 541L274 541L137 541L137 541L0 541Z" fill="#5b6986"></path><path d="M0 401L137 401L137 333L274 333L274 410L411 410L411 350L549 350L549 402L686 402L686 354L823 354L823 353L960 353L960 391L960 541L960 541L823 541L823 541L686 541L686 541L549 541L549 541L411 541L411 541L274 541L274 541L137 541L137 541L0 541Z" fill="#3b4a66"></path><path d="M0 457L137 457L137 398L274 398L274 452L411 452L411 480L549 480L549 454L686 454L686 401L823 401L823 452L960 452L960 463L960 541L960 541L823 541L823 541L686 541L686 541L549 541L549 541L411 541L411 541L274 541L274 541L137 541L137 541L0 541Z" fill="#1b2e48"></path></svg>