<svg id="visual" viewBox="0 0 960 540" width="960" height="540" xmlns="http://www.w3.org/2000/svg" xmlns:xlink="http://www.w3.org/1999/xlink" version="1.1">
    <path d="M0 208L20 198.8C40 189.7 80 171.3 120 159.8C160 148.3 200 143.7 240 154.2C280 164.7 320 190.3 360 204.7C400 219 440 222 480 216.7C520 211.3 560 197.7 600 194C640 190.3 680 196.7 720 190.8C760 185 800 167 840 170.3C880 173.7 920 198.3 940 210.7L960 223L960 0L940 0C920 0 880 0 840 0C800 0 760 0 720 0C680 0 640 0 600 0C560 0 520 0 480 0C440 0 400 0 360 0C320 0 280 0 240 0C200 0 160 0 120 0C80 0 40 0 20 0L0 0Z" fill="#5b6986"></path>
    <path d="M0 149L20 150C40 151 80 153 120 158.5C160 164 200 173 240 178C280 183 320 184 360 182.3C400 180.7 440 176.3 480 177.3C520 178.3 560 184.7 600 181.3C640 178 680 165 720 157.8C760 150.7 800 149.3 840 152.2C880 155 920 162 940 165.5L960 169L960 0L940 0C920 0 880 0 840 0C800 0 760 0 720 0C680 0 640 0 600 0C560 0 520 0 480 0C440 0 400 0 360 0C320 0 280 0 240 0C200 0 160 0 120 0C80 0 40 0 20 0L0 0Z" fill="#4e5c79"></path>
    <path d="M0 150L20 145.7C40 141.3 80 132.7 120 125.3C160 118 200 112 240 111.3C280 110.7 320 115.3 360 122.3C400 129.3 440 138.7 480 136.8C520 135 560 122 600 123.7C640 125.3 680 141.7 720 148.5C760 155.3 800 152.7 840 151C880 149.3 920 148.7 940 148.3L960 148L960 0L940 0C920 0 880 0 840 0C800 0 760 0 720 0C680 0 640 0 600 0C560 0 520 0 480 0C440 0 400 0 360 0C320 0 280 0 240 0C200 0 160 0 120 0C80 0 40 0 20 0L0 0Z" fill="#41506c"></path>
    <path d="M0 116L20 108.3C40 100.7 80 85.3 120 83C160 80.7 200 91.3 240 100C280 108.7 320 115.3 360 117.5C400 119.7 440 117.3 480 115.3C520 113.3 560 111.7 600 106.3C640 101 680 92 720 92.7C760 93.3 800 103.7 840 103.8C880 104 920 94 940 89L960 84L960 0L940 0C920 0 880 0 840 0C800 0 760 0 720 0C680 0 640 0 600 0C560 0 520 0 480 0C440 0 400 0 360 0C320 0 280 0 240 0C200 0 160 0 120 0C80 0 40 0 20 0L0 0Z" fill="#354460"></path>
    <path d="M0 74L20 70.5C40 67 80 60 120 62.5C160 65 200 77 240 79.2C280 81.3 320 73.7 360 69.3C400 65 440 64 480 63.7C520 63.3 560 63.7 600 63.8C640 64 680 64 720 64.8C760 65.7 800 67.3 840 69.2C880 71 920 73 940 74L960 75L960 0L940 0C920 0 880 0 840 0C800 0 760 0 720 0C680 0 640 0 600 0C560 0 520 0 480 0C440 0 400 0 360 0C320 0 280 0 240 0C200 0 160 0 120 0C80 0 40 0 20 0L0 0Z" fill="#283954"></path>
    <path d="M0 21L20 26.7C40 32.3 80 43.7 120 48.3C160 53 200 51 240 51C280 51 320 53 360 48C400 43 440 31 480 28.5C520 26 560 33 600 36.2C640 39.3 680 38.7 720 40.7C760 42.7 800 47.3 840 47.3C880 47.3 920 42.7 940 40.3L960 38L960 0L940 0C920 0 880 0 840 0C800 0 760 0 720 0C680 0 640 0 600 0C560 0 520 0 480 0C440 0 400 0 360 0C320 0 280 0 240 0C200 0 160 0 120 0C80 0 40 0 20 0L0 0Z" fill="#1b2e48"></path>
</svg>