<svg id="visual" viewBox="0 0 960 540" width="960" height="540" xmlns="http://www.w3.org/2000/svg" xmlns:xlink="http://www.w3.org/1999/xlink" version="1.1"><path d="M0 355L20 361.5C40 368 80 381 120 385C160 389 200 384 240 376.2C280 368.3 320 357.7 360 361C400 364.3 440 381.7 480 379.8C520 378 560 357 600 347.3C640 337.7 680 339.3 720 342.5C760 345.7 800 350.3 840 348.3C880 346.3 920 337.7 940 333.3L960 329L960 541L940 541C920 541 880 541 840 541C800 541 760 541 720 541C680 541 640 541 600 541C560 541 520 541 480 541C440 541 400 541 360 541C320 541 280 541 240 541C200 541 160 541 120 541C80 541 40 541 20 541L0 541Z" fill="#5b6986"></path><path d="M0 417L20 410.2C40 403.3 80 389.7 120 387.2C160 384.7 200 393.3 240 393.8C280 394.3 320 386.7 360 378.7C400 370.7 440 362.3 480 359.5C520 356.7 560 359.3 600 363.3C640 367.3 680 372.7 720 377.8C760 383 800 388 840 384.3C880 380.7 920 368.3 940 362.2L960 356L960 541L940 541C920 541 880 541 840 541C800 541 760 541 720 541C680 541 640 541 600 541C560 541 520 541 480 541C440 541 400 541 360 541C320 541 280 541 240 541C200 541 160 541 120 541C80 541 40 541 20 541L0 541Z" fill="#4e5c79"></path><path d="M0 436L20 430.5C40 425 80 414 120 412.8C160 411.7 200 420.3 240 419C280 417.7 320 406.3 360 404C400 401.7 440 408.3 480 409.7C520 411 560 407 600 408C640 409 680 415 720 413.5C760 412 800 403 840 397.5C880 392 920 390 940 389L960 388L960 541L940 541C920 541 880 541 840 541C800 541 760 541 720 541C680 541 640 541 600 541C560 541 520 541 480 541C440 541 400 541 360 541C320 541 280 541 240 541C200 541 160 541 120 541C80 541 40 541 20 541L0 541Z" fill="#41506c"></path><path d="M0 425L20 430C40 435 80 445 120 443.7C160 442.3 200 429.7 240 425.7C280 421.7 320 426.3 360 427.3C400 428.3 440 425.7 480 432.2C520 438.7 560 454.3 600 462.2C640 470 680 470 720 468.3C760 466.7 800 463.3 840 460.8C880 458.3 920 456.7 940 455.8L960 455L960 541L940 541C920 541 880 541 840 541C800 541 760 541 720 541C680 541 640 541 600 541C560 541 520 541 480 541C440 541 400 541 360 541C320 541 280 541 240 541C200 541 160 541 120 541C80 541 40 541 20 541L0 541Z" fill="#354460"></path><path d="M0 462L20 462.8C40 463.7 80 465.3 120 463C160 460.7 200 454.3 240 454.8C280 455.3 320 462.7 360 470.5C400 478.3 440 486.7 480 488.2C520 489.7 560 484.3 600 476.8C640 469.3 680 459.7 720 459.7C760 459.7 800 469.3 840 473.8C880 478.3 920 477.7 940 477.3L960 477L960 541L940 541C920 541 880 541 840 541C800 541 760 541 720 541C680 541 640 541 600 541C560 541 520 541 480 541C440 541 400 541 360 541C320 541 280 541 240 541C200 541 160 541 120 541C80 541 40 541 20 541L0 541Z" fill="#283954"></path><path d="M0 484L20 484C40 484 80 484 120 486.5C160 489 200 494 240 499.2C280 504.3 320 509.7 360 511.2C400 512.7 440 510.3 480 508.5C520 506.7 560 505.3 600 501.7C640 498 680 492 720 491.2C760 490.3 800 494.7 840 500.2C880 505.7 920 512.3 940 515.7L960 519L960 541L940 541C920 541 880 541 840 541C800 541 760 541 720 541C680 541 640 541 600 541C560 541 520 541 480 541C440 541 400 541 360 541C320 541 280 541 240 541C200 541 160 541 120 541C80 541 40 541 20 541L0 541Z" fill="#1b2e48"></path></svg>